# xmcd
#
# Track frame offsets:
#	150
#	17612
#	38787
#	62252
#	75807
#	92715
#	102125
#	121555
#	140292
#	152942
#	166327
#	186560
#	211262
#	243362
#	261760
#
# Disc length: 3613 seconds
#
# Revision: 5
# Processed by: cddbd v1.5.2PL0 Copyright (c) Steve Scherf et al.
# Submitted via: EZCDAudioConverter 5.1.1.1
#
DISCID=b20e1b0f
DTITLE=Eric Bibb and Needed Time - Spirit and The Blues
DYEAR=1994
DGENRE=Blues
TTITLE0=Lonesome Valley
TTITLE1=In My Father's House
TTITLE2=Needed Time
TTITLE3=I Am Blessed
TTITLE4=Just Keep Goin'On
TTITLE5=Where Shall I Be
TTITLE6=Woke Up This Morain'
TTITLE7=I Want Jesus To Walk With Me
TTITLE8=You're Gonna Need Somebody On Your Bond
TTITLE9=Braggin'
TTITLE10=Water Under The Bridge
TTITLE11=Tell Ol' Bill
TTITLE12=Satisfied Mind
TTITLE13=Meetin' At The Buildin'
TTITLE14=Waltz
EXTD=
EXTT0=
EXTT1=
EXTT2=
EXTT3=
EXTT4=
EXTT5=
EXTT6=
EXTT7=
EXTT8=
EXTT9=
EXTT10=
EXTT11=
EXTT12=
EXTT13=
EXTT14=
PLAYORDER=
